<?xml version="1.0" encoding="UTF-8"?>
<svg width="513px" height="470px" viewBox="0 0 513 470" version="1.1" xmlns="http://www.w3.org/2000/svg" xmlns:xlink="http://www.w3.org/1999/xlink">
    <!-- Generator: Sketch 54.1 (76490) - https://sketchapp.com -->
    <title>sunrise</title>
    <desc>Created with Sketch.</desc>
    <g id="Page-1" stroke="none" stroke-width="1" fill="none" fill-rule="evenodd">
        <g id="sunrise" fill-rule="nonzero">
            <path d="M395.2,363.7 L116.4,363.7 C131.2,300.3 188.1,253.4 255.8,253.4 C323.5,253.4 380.4,300.3 395.2,363.7 L395.2,363.7 Z" id="Path" fill="#FF7D00"></path>
            <path d="M255.7,181.5 C249.8,181.5 245,186.3 245,192.2 L245,217.8 C245,223.7 249.8,228.5 255.7,228.5 C261.6,228.5 266.4,223.7 266.4,217.8 L266.4,192.2 C266.4,186.3 261.6,181.5 255.7,181.5 Z M156.6,247.4 C159.5,252.5 166.1,254.2 171.2,251.3 C176.3,248.4 178,241.8 175.1,236.7 L162.2,214.4 C159.3,209.3 152.7,207.5 147.6,210.5 C142.5,213.4 140.8,220 143.7,225.1 L156.6,247.4 Z M72.4,304.2 L95.1,317.3 C100.2,320.3 106.7,318.5 109.7,313.4 C112.6,308.3 110.9,301.8 105.8,298.8 L83.1,285.7 C78,282.8 71.5,284.5 68.5,289.6 C65.6,294.8 67.3,301.3 72.4,304.2 Z M416.3,317.3 L437,305.4 C442.1,302.5 443.9,295.9 440.9,290.8 C438,285.7 431.5,283.9 426.3,286.9 L405.6,298.8 C400.5,301.7 398.7,308.3 401.7,313.4 C404.7,318.5 411.2,320.2 416.3,317.3 Z M340.3,251.4 C345.4,254.4 351.9,252.6 354.9,247.5 L366.6,227.2 C369.5,222.1 367.8,215.6 362.7,212.6 C357.6,209.7 351.1,211.4 348.1,216.5 L336.4,236.8 C333.4,241.9 335.2,248.4 340.3,251.4 L340.3,251.4 Z" id="Shape" fill="#000000"></path>
            <path d="M501.3,353 L403.3,353 C384.2,287.7 324.8,242.7 255.8,242.7 C186.8,242.7 127.4,287.7 108.3,353 L10.7,353 C4.8,353 0,357.8 0,363.7 C0,369.6 4.8,374.4 10.7,374.4 L501.4,374.4 C507.3,374.4 512.1,369.6 512.1,363.7 C512.1,357.8 507.2,353 501.3,353 Z M130.5,353 C148.7,300 198.5,264 255.8,264 C313.1,264 362.8,300 381.1,353 L130.5,353 Z M434.5,400.7 L77.5,400.7 C71.6,400.7 66.8,405.5 66.8,411.4 C66.8,417.3 71.6,422.1 77.5,422.1 L434.6,422.1 C440.5,422.1 445.3,417.3 445.3,411.4 C445.2,405.4 440.4,400.7 434.5,400.7 Z M350.5,448.3 L161.4,448.3 C155.5,448.3 150.7,453.1 150.7,459 C150.7,464.9 155.5,469.7 161.4,469.7 L350.5,469.7 C356.4,469.7 361.2,464.9 361.2,459 C361.2,453.1 356.4,448.3 350.5,448.3 Z M248.2,108.1 C252.3,112.5 259.3,112.6 263.6,108.4 L293.9,78.1 C298.1,73.9 298.1,67.2 293.9,63 C289.7,58.8 283,58.8 278.8,63 L266.7,75.1 L266.7,11 C266.7,5.1 261.9,0.3 256,0.3 C250.1,0.3 245.3,5.1 245.3,11 L245.3,75.1 L233.2,63 C229,58.8 222.3,58.8 218.1,63 C213.9,67.2 214,73.9 218.1,78.1 L248.2,108.1 Z" id="Shape" fill="#000000"></path>
        </g>
    </g>
</svg>